<?xml version="1.0" encoding="UTF-8"?>
<svg width="16px" height="16px" viewBox="0 0 16 16" version="1.1" xmlns="http://www.w3.org/2000/svg" xmlns:xlink="http://www.w3.org/1999/xlink">
    <title>icon / turn off</title>
    <defs>
        <polygon id="path-1" points="0 0 3.63283672 0 3.63283672 3.63303673 0 3.63303673"></polygon>
        <polygon id="path-3" points="6.93932761e-17 1.77646787e-15 3.6333705 1.77646787e-15 3.6333705 3.63289289 6.93932761e-17 3.63289289"></polygon>
    </defs>
    <g id="Atomos" stroke="none" stroke-width="1" fill="none" fill-rule="evenodd">
        <g id="icon-/-turn-off" transform="translate(-1.600000, -1.600000)">
            <g id="Group-13" transform="translate(1.600000, 1.600000)">
                <polygon id="Fill-1" points="0 16 16 16 16 1.77646787e-15 0 1.77646787e-15"></polygon>
                <g id="Group-12" transform="translate(0.000278, 0.000000)">
                    <path d="M7.99972178,0.616538534 C3.75245632,0.616538534 0.309241123,4.05975373 0.309241123,8.30701919 C0.309241123,12.5542846 3.75245632,15.9974998 7.99972178,15.9974998 C12.2469872,15.9974998 15.6902024,12.5542846 15.6902024,8.30701919 C15.6902024,4.05975373 12.2469872,0.616538534 7.99972178,0.616538534 M7.99972178,1.86861679 C11.5499437,1.86861679 14.4381242,4.7567973 14.4381242,8.30701919 C14.4381242,11.8572411 11.5499437,14.7454216 7.99972178,14.7454216 C4.44949989,14.7454216 1.56131938,11.8572411 1.56131938,8.30701919 C1.56131938,4.7567973 4.44949989,1.86861679 7.99972178,1.86861679" id="Fill-2" fill="currentColor"></path>
                    <path d="M10.5303799,11.2624039 L11.1724201,10.6203638 C11.2304237,10.5623601 11.2304237,10.4693543 11.1724201,10.4113507 L8.55225631,7.79118695 L8.55225631,4.82500156 C8.55225631,4.75299706 8.49425269,4.69399337 8.42124812,4.69399337 L7.47918924,4.69399337 C7.40718474,4.69399337 7.34818106,4.75299706 7.34818106,4.82500156 L7.34818106,8.28921808 L10.3213669,11.2624039 C10.3793705,11.3204075 10.4723763,11.3204075 10.5303799,11.2624039" id="Fill-4" fill="currentColor"></path>
                    <g id="Group-8" transform="translate(12.366885, 0.000000)">
                        
                        <g id="Clip-7"></g>
                        <path d="M2.39175915,3.53542096 C2.45676322,3.63342709 2.58377115,3.6624289 2.68277734,3.60042503 L3.52783016,3.07239202 C3.63283672,3.00738796 3.66583878,2.86537909 3.59783453,2.76237265 C2.88679009,1.68430527 1.95073159,0.747246703 0.870664085,0.0352022001 C0.767657647,-0.0328020501 0.625648772,0.000200012501 0.559644646,0.105206575 L0.0326117067,0.950259391 C-0.0293921685,1.04926558 -0.000390355914,1.17627352 0.0976157695,1.24027752 C1.00467246,1.84131508 1.79172165,2.62936434 2.39175915,3.53542096" id="Fill-6" fill="currentColor" ></path>
                    </g>
                    <g id="Group-11">
                        <mask id="mask-4" fill="white">
                            <use xlink:href="#path-3"></use>
                        </mask>
                        <g id="Clip-10"></g>
                        <path d="M0.949881163,3.60052503 C1.04888735,3.66252891 1.17589529,3.63252703 1.24089935,3.53552097 C1.84093685,2.62746422 2.62898611,1.84041503 3.53504274,1.24137759 C3.63304886,1.17637352 3.66305074,1.04936559 3.60104686,0.950359397 L3.07301386,0.105306582 C3.0080098,0.000300018751 2.86600092,-0.0327020439 2.76299448,0.0353022064 C1.68392704,0.746346647 0.747868537,1.68240515 0.0358240339,2.76247265 C-0.0321802163,2.86547909 -0.000178216191,3.00748797 0.104828347,3.07249203 L0.949881163,3.60052503 Z" id="Fill-9" fill="currentColor" mask="url(#mask-4)"></path>
                    </g>
                </g>
            </g>
        </g>
    </g>
</svg>