<svg width="18" height="18" viewBox="0 0 18 18" xmlns="http://www.w3.org/2000/svg">
    <g fill="none" fill-rule="evenodd">
        <path d="M2 18h16V2H2z"/>
        <path d="M10 8.182a1.924 1.924 0 0 1-1.409-.591 1.924 1.924 0 0 1-.59-1.41c0-.557.196-1.03.59-1.417a1.939 1.939 0 0 1 1.41-.582c.557 0 1.03.194 1.417.582.388.388.582.86.582 1.418 0 .545-.194 1.015-.582 1.409-.388.394-.86.59-1.418.59zm5.818 2.182a1.924 1.924 0 0 1-1.409-.591 1.924 1.924 0 0 1-.59-1.41c0-.557.196-1.03.59-1.417a1.939 1.939 0 0 1 1.41-.582c.557 0 1.03.194 1.417.582.388.388.582.86.582 1.418 0 .545-.194 1.015-.582 1.409-.388.394-.86.59-1.418.59zm-11.636 0a1.923 1.923 0 0 1-1.409-.591 1.924 1.924 0 0 1-.59-1.41c0-.557.196-1.03.59-1.417a1.937 1.937 0 0 1 1.41-.582c.556 0 1.03.194 1.417.582.388.388.582.86.582 1.418 0 .545-.194 1.015-.582 1.409a1.915 1.915 0 0 1-1.418.59zM10 12.727c-.424 0-.833-.1-1.227-.3a2.529 2.529 0 0 1-.955-.827 2.382 2.382 0 0 0-.7-.673 2.594 2.594 0 0 0-.882-.345c.352-.364.903-.642 1.655-.836a8.456 8.456 0 0 1 2.11-.291 8.56 8.56 0 0 1 2.117.29c.758.195 1.312.473 1.664.837a2.602 2.602 0 0 0-.882.345c-.273.17-.506.394-.7.673a2.521 2.521 0 0 1-.955.827c-.393.2-.809.3-1.245.3zm-7.827 3.09A.172.172 0 0 1 2 15.647v-2.737c0-.351.124-.651.373-.9.248-.248.548-.372.9-.372h2.563c.206 0 .403.05.591.154.188.103.35.246.482.427.352.509.8.903 1.346 1.182a3.776 3.776 0 0 0 1.745.418c.618 0 1.2-.14 1.745-.418a3.76 3.76 0 0 0 1.364-1.182c.133-.181.291-.324.473-.427.182-.103.376-.154.582-.154h2.563c.352 0 .652.124.9.372.25.249.373.549.373.9v2.737a.172.172 0 0 1-.173.172h-4.382a.172.172 0 0 1-.172-.172v-1.991a4.73 4.73 0 0 1-1.5.927 4.875 4.875 0 0 1-1.773.327 4.804 4.804 0 0 1-1.764-.327 4.98 4.98 0 0 1-1.509-.927v1.99a.172.172 0 0 1-.172.173H2.173z" fill="#4E4F53"/>
    </g>
</svg>
