<svg width="16" height="16" viewBox="0 0 16 16" xmlns="http://www.w3.org/2000/svg">
    <path d="m9.08 7.839.502-.772c.759.491 1.375.12 1.805-.433C11.962 5.894 14.4 1.8 14.4 1.8l-.187-.163-3.36 4.648L10.524 6l3.222-4.732-.198-.17-3.381 4.585-.337-.285L13.053.696l-.228-.19-3.37 4.627-.328-.275 3.222-4.71L12.151 0C9.69 2.778 8.723 4.15 8.723 4.15c-.711.857-.38 1.649-.38 1.649l.377.602-.338.447-1.102-1.56s.688-.868.14-2.498C6.873 1.16 5.13-.312 3.837.178 2.544.67 2.755 2.445 3.13 3.506c.372 1.06 1.858 2.718 3.447 2.28l1.159 1.918-5.03 6.647s-.439.42-.264 1.098c0 0 .177.418.559.511.38.094.723.063 1.143-.552.29-.423 2.772-4.239 4.282-6.56 1.546 2.566 3.524 5.855 3.677 6.144.254.479.445.657.523.743.166.184.829.528 1.254-.094.422-.614-.197-1.28-.197-1.28L9.08 7.838z" fill="#4E4F53" fill-rule="evenodd"/>
</svg>
