<svg width="24" height="24" viewBox="0 0 24 24" xmlns="http://www.w3.org/2000/svg">
    <path d="M15.774 7.361a5.96 5.96 0 0 1 2.207 4.64 5.938 5.938 0 0 1-1.464 3.89c-.194.223-.42.564-.468.983l-.009.16v4.397c0 .678-.517 1.238-1.176 1.306l-.134.006h-1.254A1.499 1.499 0 0 1 12 24c-.698 0-1.28-.479-1.448-1.124l-.028-.132H9.271a1.315 1.315 0 0 1-1.305-1.178l-.007-.134v-4.404c0-.384-.159-.777-.448-1.104a5.938 5.938 0 0 1-1.384-5.06c.44-2.338 2.29-4.232 4.604-4.712 1.803-.37 3.64.068 5.043 1.21zM14.08 19.642H9.92v1.14h4.16v-1.14zm-2.95-11.57c-1.545.32-2.78 1.587-3.076 3.153-.235 1.25.095 2.458.928 3.401a3.68 3.68 0 0 1 .932 2.186l.007.215v.654h4.16v-.647c0-.869.331-1.708.958-2.43A3.972 3.972 0 0 0 16.02 12a4.008 4.008 0 0 0-1.484-3.12c-.958-.778-2.167-1.069-3.407-.809zM3.482 11.02c.29 0 .532.212.578.491l.008.095v.788c0 .29-.213.533-.492.579l-.094.007H.586a.586.586 0 0 1-.578-.49l-.007-.096v-.788c0-.291.212-.533.49-.578l.095-.008h2.896zm19.932 0c.323 0 .586.262.586.586v.788a.587.587 0 0 1-.586.586h-2.896a.586.586 0 0 1-.585-.586v-.788c0-.324.262-.586.585-.586zM4.541 3.168l.081.068L6.67 5.284a.585.585 0 0 1 .068.747l-.068.081-.558.558a.587.587 0 0 1-.747.068l-.08-.068-2.049-2.048a.586.586 0 0 1-.068-.748l.068-.081.557-.557a.588.588 0 0 1 .748-.068zm15.585 0 .08.068.558.557c.203.203.226.52.068.748l-.068.08-2.048 2.049a.587.587 0 0 1-.747.067l-.081-.067-.558-.558a.587.587 0 0 1-.068-.747l.068-.081 2.048-2.048a.588.588 0 0 1 .748-.068zM12.395 0c.29 0 .532.212.578.49l.008.096v2.896c0 .29-.213.533-.492.578l-.094.008h-.788a.586.586 0 0 1-.579-.491l-.007-.095V.586c0-.292.212-.533.49-.578L11.607 0h.788z" fill="#ffffff" fill-rule="evenodd"/>
</svg>
