<svg width="18" height="18" viewBox="0 0 18 18" xmlns="http://www.w3.org/2000/svg" xmlns:xlink="http://www.w3.org/1999/xlink">
    <defs>
        <path id="zkervahj4a" d="M0 0h13.82v16H0z"/>
    </defs>
    <g fill="none" fill-rule="evenodd">
        <path d="M2 18h16V2H2z"/>
        <g transform="translate(2.97 2)">
            <mask id="n4u49k3nnb" fill="currentColor">
                <use xlink:href="#zkervahj4a"/>
            </mask>
            <path d="M8.918 4.537c.625-.208 1.529-.118 1.529-.118l-.246-.572c.438.455.855.449.855.449-.149-.187-.331-.572-.331-.572.465.412.893.466.893.466l-.252-.594c.412.471 1.027.594 1.027.594-.031-.247-.316-.567-.351-.606.023.024.101.088.383.263.395.246.812.139.812.139l.583-.048c-1.524-1.213-1.906-1.267-3.058-1.277-1.149-.011-2.65 1-2.65 1 .617-.499 1.205-1.386 1.205-1.386l-.475-.019c.661-.123.759-.373.759-.373l-.656-.005c.436-.313 1.004-.24 1.004-.24-.142-.264-.539-.303-.539-.303.779-.01.881-.346.881-.346L9.728.981l.861-.213.547-.768C9.497.179 8.942.435 8.183 1.348c-.759.913-1.126 2.551-1.126 2.551s-.683-.674-1.212-1.109c-.529-.435-2.091-1.63-3.635-1.297C.665 1.826 0 2.653 0 2.653c.392-.034.827.188 1.211.188.384 0 .905-.281.905-.281l-.811.699c.896.034 1.579-.664 1.579-.664-.5.451-.582.984-.582.984.301-.037 1.164-.735 1.164-.735l-.703.954 1.286-.733-.492.763c.241.211 1.55.31 1.55.31C.887 5.876.551 9.758.551 9.758c.935-.376 1.481-1.695 1.481-1.695.019.465-.1 1.099-.1 1.099.439-.452.502-1.613.502-1.613.082.74.477 1.111.477 1.111-.05-1.143.27-1.519.27-1.519V8.39c.421-.484.508-1.356.508-1.356.208.345.07.822.07.822L4.9 7.15c-.809 3.113.718 4.387.718 4.387-.041-.576.162-.728.192-1.223.03-.495-.286-.946-.286-.946.231.216.685.79.685.79.021-.878-.518-1.392-.518-1.392.415.404.913.524.913.524-.556-.584-.733-1.38-.733-1.38.5.507.878.856.878.856-.424-.753-.588-1.398-.588-1.398.445.235.608.624.608.624.103-.815.293-1.316.424-1.585.741 2.268 1.774 6.942.818 8.74-.003.006.001.015-.001.022a.556.556 0 0 0-.07.259.567.567 0 0 0 1.076.254c.004-.007.011-.008.014-.016l.005-.012a.036.036 0 0 1 .004-.009c1.111-2.265-.415-7.058-1.195-9.221.656.577 2.329 1.6 2.329 1.6l.073-.722c.155.641.445 1.204.445 1.204l.037-1.113.322 1.352c.224-.271.392-1.066.392-1.066s.02.523.092.914c.072.392.335.598.335.598l.083-.952c.048.795.685 1.185.685 1.185l.611.358c-.984-4.472-4.33-5.245-4.33-5.245" fill="currentColor" mask="url(#n4u49k3nnb)"/>
        </g>
    </g>
</svg>
