<?xml version="1.0" encoding="UTF-8"?>
<svg width="16px" height="15px" viewBox="0 0 16 15" version="1.1" xmlns="http://www.w3.org/2000/svg" xmlns:xlink="http://www.w3.org/1999/xlink">
    <title>icon / confusion</title>
    <g id="Atomos" stroke="none" stroke-width="1" fill="none" fill-rule="evenodd">
        <g id="icon-/-confusion" transform="translate(0.000103, 0.800000)" fill="currentColor">
            <path d="M7.41874028,3.60656597 C7.52218778,3.60656597 7.62149738,3.61380725 7.71977251,3.62725534 C7.70632434,3.51449831 7.70011748,3.40484468 7.69908301,3.30139786 C7.59563551,3.40381021 7.47873983,3.50622256 7.35046492,3.60760044 C7.37322337,3.60656597 7.3970163,3.60656597 7.41874028,3.60656597 M3.20015109,2.86795569 C3.63566508,2.89485187 4.05048957,3.07071146 4.46014168,3.24450211 C4.9194486,3.43898213 5.38806579,3.63863449 5.95185468,3.69863364 C6.11943964,3.50311916 6.31805884,3.32829403 6.54150545,3.17519274 C7.20770737,2.72002674 7.56770468,2.28141224 7.55425651,1.94003774 C7.5418428,1.61107686 7.17356969,1.39487301 7.16943179,1.39280407 C7.10632882,1.34832194 6.28702459,0.704882735 5.33530756,0.846604876 C4.72082939,0.935569139 4.16221287,1.33590832 3.67600961,2.03313988 C3.47945935,2.31554969 3.32221915,2.5948561 3.20015109,2.86795569 M9.16389966,3.84139025 C9.29217456,3.84139025 9.42044946,3.85173493 9.55079332,3.87345876 C10.290443,3.99449154 10.9845757,4.29345284 11.5711231,4.7206882 C11.5866402,4.70413671 11.6042263,4.68861969 11.6218123,4.67310266 C11.8856035,4.43931286 12.4183581,4.13104134 13.2686966,4.35758987 C13.2904206,4.2882805 13.3049032,4.21379879 13.3162824,4.13311028 C13.4331781,3.21346807 13.1921454,2.48934034 12.5983568,1.98451987 C11.8700863,1.36177003 10.7249225,1.19832406 10.0411345,1.39797641 C9.40389786,1.58521515 8.90631537,1.99693349 8.67562744,2.52865013 C8.50287011,2.92795485 8.48114613,3.39656893 8.61148999,3.90863068 C8.79148864,3.86414855 8.9756252,3.84139025 9.16389966,3.84139025 M9.33872594,4.91413375 C9.68734402,4.91930609 10.0452724,4.95034014 10.3856147,4.98240865 C10.0804445,4.84482438 9.75355042,4.74551544 9.41527709,4.68965415 C9.34493279,4.678275 9.27769191,4.67103373 9.21148551,4.66896479 C9.25803688,4.74861884 9.30045036,4.83034183 9.33872594,4.91413375 M6.36150679,4.54275967 C6.11116383,4.96999503 6.06461246,5.4065406 6.06771588,5.68791595 C6.05426771,6.14928875 6.21254239,6.55480028 6.52909175,6.89720925 C6.53219517,6.1575645 6.77840023,5.4065406 7.24287952,4.82206608 C7.35460282,4.68241288 7.47460193,4.55620776 7.60184236,4.44551966 C7.45184348,4.42586477 7.28839642,4.43103711 7.11253567,4.46517456 C6.84667558,4.51482903 6.59633263,4.53965627 6.36150679,4.54275967 M8.50597354,5.80687979 C8.2297687,5.8875683 8.0808043,6.04273853 8.0435632,6.31066579 C7.96804652,6.87134754 8.0808043,7.32237567 8.30528538,7.68340506 C8.36942283,7.64926761 8.42942238,7.59857867 8.48424956,7.53237271 C8.62700711,7.36168546 8.72942014,7.10099948 8.78010942,6.7979003 C8.73562699,6.49480112 8.64459319,6.16584024 8.50597354,5.80687979 M11.7914662,6.05618662 C11.6921566,6.547559 11.7335356,7.16720544 11.9311204,7.74547315 C12.0459471,8.08167531 12.2362905,8.3744298 12.4255994,8.62787451 C12.5549088,8.07236509 12.5197367,7.506511 12.3128417,6.95927734 C12.1897391,6.63445433 12.0118094,6.32928622 11.7914662,6.05618662 M11.6590534,9.45855245 C11.7976731,9.46786267 11.925948,9.47303501 12.0376713,9.47510394 C12.0221542,9.45544905 12.0076715,9.43786309 11.9931889,9.42027713 C11.7231909,9.08097157 11.3538833,8.61546089 11.1480228,8.01340041 C10.8925074,7.26858332 10.8449216,6.50514581 10.9814723,5.86584447 C10.7807841,5.85032745 10.5852684,5.83274149 10.3969939,5.81515553 C10.1000996,5.78722489 9.83217053,5.76446659 9.59424127,5.7510185 C9.65424082,6.10791003 9.66148215,6.47411176 9.61596525,6.81962413 C9.67286137,7.32341013 9.62424105,7.77857613 9.47113874,8.1923634 C9.42562184,8.31649958 9.37079466,8.43649789 9.30665721,8.55235833 C9.8497566,8.83373367 10.4663037,8.98373156 10.9556104,9.06442008 C11.3290559,9.12441923 11.5400888,9.29614095 11.6590534,9.45855245 M2.92187731,3.71001279 C2.58050055,5.31447293 3.36877052,6.64066114 4.18704027,7.26444545 C4.99082737,7.87581614 5.8556485,8.61028855 5.9259928,9.58268863 C5.9301307,9.64061885 5.93116518,9.6975146 5.9301307,9.75544482 C6.29840382,9.64268779 6.6759872,9.50613799 7.05667401,9.34579542 C7.21287974,9.27958946 7.35667177,9.21131456 7.49115353,9.13993625 C7.17770759,8.85338857 6.93253701,8.5109796 6.76598653,8.11788169 C5.41392766,7.36375439 5.22048083,6.33135515 5.24117033,5.73136361 C5.23599796,5.27102527 5.31772148,4.84378991 5.47806511,4.46103669 C4.96186207,4.3565554 4.52531361,4.1713856 4.13738547,4.00690516 C3.64704431,3.79897705 3.27256435,3.6479447 2.92187731,3.71001279 M2.02395298,4.3565554 C1.9525742,4.4444852 1.878092,4.54172521 1.7994719,4.6493099 C0.0305195934,7.1165165 1.0949944,8.5792545 1.79740295,9.54751672 C2.25153749,10.171301 3.52187283,10.3088853 5.06324063,9.98095888 C5.09634383,9.86509845 5.10875753,9.75234142 5.10048173,9.64165332 C5.05496483,9.0147656 4.34634943,8.42511874 3.68635436,7.92236721 C2.84636063,7.28306588 1.99188426,5.96411895 2.02395298,4.3565554 M11.3838831,11.6443837 C12.2435318,11.7912782 13.1218011,11.7602441 13.8697266,11.1043913 C14.846271,10.2488861 15.3076469,9.03648944 15.1369585,7.7765072 C14.9942009,6.72134966 14.4055846,5.81101766 13.5904183,5.37136868 C13.3317996,5.60102062 13.0028365,5.73757042 12.6397358,5.8130866 C12.8228378,6.07997939 12.9728367,6.3654926 13.0876635,6.66652284 C13.4383505,7.5975442 13.4093852,8.56373748 13.0173192,9.47510394 C13.0783532,9.63441204 13.0855945,9.79475461 12.9935262,9.95923505 C12.9138716,10.1019917 12.8000794,10.1992317 12.5859431,10.2509551 C12.5062885,10.3668155 12.4204271,10.4816415 12.3283588,10.593364 C12.0624987,10.9181871 11.7738802,11.1985279 11.470779,11.439559 C11.4428482,11.5067994 11.4138829,11.5750743 11.3838831,11.6443837 M5.98081998,12.0219646 C6.03357821,12.025068 6.64495295,12.0964463 7.4880501,12.0271369 C7.50667065,11.9785169 7.52632568,11.9288625 7.55011861,11.879208 C8.01459789,10.8664636 9.04803845,11.0723228 10.0845824,11.3402501 C10.3256151,11.2181828 10.5614754,11.0774952 10.7900944,10.9130147 C10.889404,10.65957 10.9700931,10.4185389 11.0031963,10.2354381 C10.6711298,10.2033695 10.2821672,10.1599219 9.8249292,10.1061295 C9.22700263,10.0347512 8.69631694,9.88164994 8.24425135,9.65303247 C7.98977049,9.82061631 7.70011748,9.97268314 7.37839575,10.1081985 C6.83012398,10.3399193 6.24357664,10.5375028 5.65599482,10.6854317 C5.51840964,10.9306007 5.33013519,11.1747352 5.09117145,11.4188696 C4.74979469,11.7654165 4.74462232,11.9092076 4.74462232,11.9112765 C4.83669059,11.9981718 5.45427219,12.0705846 5.98081998,12.0219646 M8.22252738,12.7843676 C8.2421824,12.853677 8.27321665,12.9188485 8.31769908,12.9788477 C8.50183564,13.22712 8.8928672,13.3688422 9.25183003,13.3171188 C9.46596637,13.2891881 9.85079108,13.1712587 10.0338932,12.6974723 C10.0949272,12.5423021 10.1590646,12.3860974 10.225271,12.2319616 C10.2097539,12.2278238 10.1952713,12.2236859 10.1787197,12.219548 C9.51148327,12.5195438 8.83390212,12.690231 8.22252738,12.7843676 M9.0997622,14.155038 C8.51838724,14.155038 7.96908099,13.9005588 7.65253163,13.4712545 C7.51804988,13.2881536 7.43218845,13.0874668 7.39494735,12.8733319 C6.59116025,12.9219519 6.02530241,12.8516081 5.96530286,12.8443668 C5.65806377,12.8816077 4.32565993,12.9488481 3.99049002,12.2412719 C3.73704364,11.7095552 4.1860058,11.1685284 4.42496953,10.9161181 C3.01704901,11.0847364 1.74050682,10.8757739 1.12913208,10.0337168 C0.388447955,9.01580007 -0.989472789,7.1196199 1.12706313,4.16724773 C1.51602574,3.62622087 1.8822299,3.28794977 2.23188246,3.09243529 C2.38705372,2.5948561 2.63532773,2.08072541 2.99739399,1.56038792 C3.62118243,0.663504008 4.37117683,0.147304388 5.22668768,0.0262716108 C6.53426412,-0.156829257 7.58942866,0.675917626 7.63391108,0.711089544 C7.81597869,0.806260617 8.1718381,1.10832532 8.3166646,1.55418111 C8.68700667,1.11453213 9.20320971,0.78143338 9.80941208,0.603504854 C10.6897503,0.342818873 12.1566359,0.519712931 13.1352493,1.35452875 C13.6980037,1.83452198 14.330068,2.72416462 14.1366211,4.23759156 C14.1169661,4.39793413 14.0838629,4.54275967 14.0393805,4.67413713 C15.0697176,5.25240484 15.7793675,6.35514792 15.9572972,7.6658191 C16.1662612,9.20614222 15.6035067,10.6854317 14.4159294,11.7261067 C13.3504201,12.6571281 12.1214638,12.6312664 11.0435408,12.4223038 C10.9618173,12.6126459 10.8811282,12.805057 10.8056115,12.9985026 C10.558372,13.6326315 10.0318242,14.0484878 9.36148439,14.137452 C9.27458848,14.1488312 9.18665811,14.155038 9.0997622,14.155038" id="Fill-1"></path>
        </g>
    </g>
</svg>