<?xml version="1.0" encoding="UTF-8"?>
<svg width="13px" height="16px" viewBox="0 0 13 16" version="1.1" xmlns="http://www.w3.org/2000/svg" xmlns:xlink="http://www.w3.org/1999/xlink">
    <title>icon / fork and spoon</title>
    <g id="Atomos" stroke="none" stroke-width="1" fill="none" fill-rule="evenodd">
        <g id="icon-/-fork-and-spoon" transform="translate(0.400000, 0.000000)" fill="currentColor">
            <path d="M6.68059094,7.83902461 C6.9896414,7.36414977 7.18219621,7.06671197 7.18219621,7.06671197 C7.94086213,7.55799717 8.5570375,7.18773838 8.98739748,6.63388868 C9.56217357,5.89337111 11.9999174,1.80001154 11.9999174,1.80001154 L11.8131392,1.63693357 L8.45209513,6.28516849 L8.12475197,6.00003846 L11.3471566,1.26770043 L11.1488251,1.09846858 L7.76756281,5.68311335 L7.4305919,5.39798332 L10.6529965,0.696414721 L10.4248191,0.506669915 L7.05414726,5.13336624 L6.7268041,4.85849268 L9.94920872,0.147693254 L9.75087728,0 C7.29098967,2.77847935 6.32340179,4.15079584 6.32340179,4.15079584 C5.61191179,5.00721158 5.94310605,5.79901153 5.94310605,5.79901153 L6.31955069,6.40106667 L5.98161701,6.84824903 L4.88020354,5.28823903 C4.88020354,5.28823903 5.56762418,4.41951551 5.01980577,2.78976147 C4.47295013,1.16000744 2.73129194,-0.31179687 1.43732366,0.178462682 C0.144318164,0.669747883 0.355165673,2.44514388 0.72872199,3.5056635 C1.10131553,4.56515747 2.58687584,6.22362964 4.17641573,5.78567811 C4.17641573,5.78567811 4.65876552,6.58363195 5.33463287,7.70363913 L0.305101424,14.3508612 C0.305101424,14.3508612 -0.133923526,14.7713767 0.0413013445,15.4493298 C0.0413013445,15.4493298 0.218451763,15.8667684 0.599710273,15.9601023 C0.980006008,16.0544619 1.32275356,16.0226668 1.74252303,15.4083039 C2.03328078,14.9847114 4.51531219,11.1693024 6.02494184,8.84826185 C7.57115691,11.4144321 9.54869473,14.7026584 9.7017758,14.991891 C9.95594814,15.4708684 10.1465774,15.6493311 10.2245621,15.7354855 C10.391122,15.9190764 11.0535105,16.2626684 11.4790566,15.6411259 C11.9007516,15.026763 11.281688,14.3600921 11.281688,14.3600921 L6.68059094,7.83902461 Z" id="Fill-1"></path>
        </g>
    </g>
</svg>