<svg width="16" height="16" viewBox="0 0 16 16" xmlns="http://www.w3.org/2000/svg">
    <path d="M15.566 0c.24 0 .434.194.434.434v3.264a.168.168 0 0 1-.168.169h-.688a.17.17 0 0 1-.17-.169V1.026H1.026v9.65h7.25c.069.003.24.038.24.31v3.982h2.628a.19.19 0 0 1 .19.19v.652a.19.19 0 0 1-.19.19H4.856a.19.19 0 0 1-.19-.19v-.652a.19.19 0 0 1 .19-.19h2.628v-3.266H.434A.433.433 0 0 1 0 11.268V.434C0 .194.194 0 .434 0h15.132zm-1.523 4.9A3.575 3.575 0 0 1 16 8.083a3.599 3.599 0 1 1-7.197 0c0-1.393.798-2.587 1.957-3.183v1.287a2.492 2.492 0 0 0-.89 1.896 2.534 2.534 0 0 0 2.532 2.53 2.534 2.534 0 0 0 2.53-2.53c0-.764-.352-1.434-.889-1.896zm-1.26-1.121c.087 0 .156.07.156.156v3.992c0 .086-.07.156-.156.156h-.764a.156.156 0 0 1-.155-.156V3.935c0-.086.07-.156.155-.156z" fill="#4E4F53" fill-rule="evenodd"/>
</svg>
